<?xml version="1.0" encoding="UTF-8"?><svg id="Calque_1" xmlns="http://www.w3.org/2000/svg" viewBox="0 0 1300.71 1300.47"><defs><style>.cls-1{fill:none;}</style></defs><path d="M641.93,626.46l-63.45,154.57c-1.35,3.27-4.64,5.43-8.31,5.43h-47.65c-6.36,0-10.68-6.2-8.27-11.85l109.14-254.84c1.38-3.22,4.64-5.32,8.27-5.32h37.5c3.63,0,6.89,2.11,8.27,5.33l108.77,254.84c2.41,5.65-1.91,11.84-8.27,11.84h-47.29c-3.66,0-6.96-2.14-8.3-5.42l-63.8-154.59c-2.98-7.23-13.64-7.22-16.61,0h0Z"/><g><path class="cls-1" d="M335.61,470.84c-6.52,0-11.82-5.1-11.82-11.38v-86.31c0-22.95-19.4-41.61-43.24-41.61h-72.68c-6.52,0-11.82-5.1-11.82-11.38s5.31-11.38,11.82-11.38h72.68c23.84,0,43.24-18.67,43.24-41.61v-75.7c0-6.27,5.31-11.38,11.82-11.38h3.46c6.52,0,11.82,5.11,11.82,11.38v75.71c0,22.95,19.4,41.61,43.24,41.61h72.68c6.52,0,11.82,5.11,11.82,11.38s-5.3,11.38-11.82,11.38h-72.68c-23.84,0-43.24,18.67-43.24,41.61v86.31c0,6.27-5.3,11.38-11.82,11.38h-3.46Z"/><path d="M337.34,282.38c5.03,17.36,18.44,31.39,35.75,37.78-17.31,6.39-30.72,20.42-35.75,37.78-5.03-17.36-18.44-31.39-35.75-37.78,17.31-6.39,30.72-20.42,35.75-37.78m1.73-117.42h-3.46c-15.21,0-27.53,11.86-27.53,26.5v75.71c0,14.64-12.32,26.5-27.53,26.5h-72.68c-15.21,0-27.53,11.86-27.53,26.5h0c0,14.64,12.32,26.5,27.53,26.5h72.68c15.21,0,27.53,11.86,27.53,26.5v86.31c0,14.64,12.32,26.5,27.53,26.5h3.46c15.21,0,27.53-11.86,27.53-26.5v-86.31c0-14.64,12.32-26.5,27.53-26.5h72.68c15.21,0,27.53-11.86,27.53-26.5h0c0-14.64-12.32-26.5-27.53-26.5h-72.68c-15.21,0-27.53-11.86-27.53-26.5v-75.71c0-14.64-12.32-26.5-27.53-26.5h0Z"/></g><g><path class="cls-1" d="M323.49,1120.84c-6.52,0-11.82-5.1-11.82-11.38v-86.31c0-22.95-19.4-41.61-43.24-41.61h-72.68c-6.52,0-11.82-5.1-11.82-11.38s5.31-11.38,11.82-11.38h72.68c23.84,0,43.24-18.67,43.24-41.61v-75.7c0-6.27,5.31-11.38,11.82-11.38h3.46c6.52,0,11.82,5.11,11.82,11.38v75.71c0,22.95,19.4,41.61,43.24,41.61h72.68c6.52,0,11.82,5.11,11.82,11.38s-5.3,11.38-11.82,11.38h-72.68c-23.84,0-43.24,18.67-43.24,41.61v86.31c0,6.27-5.3,11.38-11.82,11.38h-3.46Z"/><path d="M325.22,932.38c5.03,17.36,18.44,31.39,35.75,37.78-17.31,6.39-30.72,20.42-35.75,37.78-5.03-17.36-18.44-31.39-35.75-37.78,17.31-6.39,30.72-20.42,35.75-37.78m1.73-117.42h-3.46c-15.21,0-27.53,11.86-27.53,26.5v75.71c0,14.64-12.32,26.5-27.53,26.5h-72.68c-15.21,0-27.53,11.86-27.53,26.5h0c0,14.64,12.32,26.5,27.53,26.5h72.68c15.21,0,27.53,11.86,27.53,26.5v86.31c0,14.64,12.32,26.5,27.53,26.5h3.46c15.21,0,27.53-11.86,27.53-26.5v-86.31c0-14.64,12.32-26.5,27.53-26.5h72.68c15.21,0,27.53-11.86,27.53-26.5h0c0-14.64-12.32-26.5-27.53-26.5h-72.68c-15.21,0-27.53-11.86-27.53-26.5v-75.71c0-14.64-12.32-26.5-27.53-26.5h0Z"/></g><g><path class="cls-1" d="M973.49,1120.84c-6.52,0-11.82-5.1-11.82-11.38v-86.31c0-22.95-19.4-41.61-43.24-41.61h-72.68c-6.52,0-11.82-5.1-11.82-11.38s5.31-11.38,11.82-11.38h72.68c23.84,0,43.24-18.67,43.24-41.61v-75.7c0-6.27,5.31-11.38,11.82-11.38h3.46c6.52,0,11.82,5.11,11.82,11.38v75.71c0,22.95,19.4,41.61,43.24,41.61h72.68c6.52,0,11.82,5.11,11.82,11.38s-5.3,11.38-11.82,11.38h-72.68c-23.84,0-43.24,18.67-43.24,41.61v86.31c0,6.27-5.3,11.38-11.82,11.38h-3.46Z"/><path d="M975.22,932.38c5.03,17.36,18.44,31.39,35.75,37.78-17.31,6.39-30.72,20.42-35.75,37.78-5.03-17.36-18.44-31.39-35.75-37.78,17.31-6.39,30.72-20.42,35.75-37.78m1.73-117.42h-3.46c-15.21,0-27.53,11.86-27.53,26.5v75.71c0,14.64-12.32,26.5-27.53,26.5h-72.68c-15.21,0-27.53,11.86-27.53,26.5h0c0,14.64,12.32,26.5,27.53,26.5h72.68c15.21,0,27.53,11.86,27.53,26.5v86.31c0,14.64,12.32,26.5,27.53,26.5h3.46c15.21,0,27.53-11.86,27.53-26.5v-86.31c0-14.64,12.32-26.5,27.53-26.5h72.68c15.21,0,27.53-11.86,27.53-26.5h0c0-14.64-12.32-26.5-27.53-26.5h-72.68c-15.21,0-27.53-11.86-27.53-26.5v-75.71c0-14.64-12.32-26.5-27.53-26.5h0Z"/></g><g><path class="cls-1" d="M973.49,470.84c-6.52,0-11.82-5.1-11.82-11.38v-86.31c0-22.95-19.4-41.61-43.24-41.61h-72.68c-6.52,0-11.82-5.1-11.82-11.38s5.31-11.38,11.82-11.38h72.68c23.84,0,43.24-18.67,43.24-41.61v-75.7c0-6.27,5.31-11.38,11.82-11.38h3.46c6.52,0,11.82,5.11,11.82,11.38v75.71c0,22.95,19.4,41.61,43.24,41.61h72.68c6.52,0,11.82,5.11,11.82,11.38s-5.3,11.38-11.82,11.38h-72.68c-23.84,0-43.24,18.67-43.24,41.61v86.31c0,6.27-5.3,11.38-11.82,11.38h-3.46Z"/><path d="M975.22,282.38c5.03,17.36,18.44,31.39,35.75,37.78-17.31,6.39-30.72,20.42-35.75,37.78-5.03-17.36-18.44-31.39-35.75-37.78,17.31-6.39,30.72-20.42,35.75-37.78m1.73-117.42h-3.46c-15.21,0-27.53,11.86-27.53,26.5v75.71c0,14.64-12.32,26.5-27.53,26.5h-72.68c-15.21,0-27.53,11.86-27.53,26.5h0c0,14.64,12.32,26.5,27.53,26.5h72.68c15.21,0,27.53,11.86,27.53,26.5v86.31c0,14.64,12.32,26.5,27.53,26.5h3.46c15.21,0,27.53-11.86,27.53-26.5v-86.31c0-14.64,12.32-26.5,27.53-26.5h72.68c15.21,0,27.53-11.86,27.53-26.5h0c0-14.64-12.32-26.5-27.53-26.5h-72.68c-15.21,0-27.53-11.86-27.53-26.5v-75.71c0-14.64-12.32-26.5-27.53-26.5h0Z"/></g><path d="M140.65,129.7c-10.31,15.36-27.5,24.53-46,24.53H59.66c-11.14,0-21.9-3.3-31.12-9.57-9.21-6.27-16.25-15.06-20.36-25.42L.16,99.01l-.16,.41V32.92l.1-.25L30.84,110.26c4.72,11.9,16.04,19.58,28.83,19.58h35c10.35,0,19.97-5.13,25.74-13.73,5.77-8.59,6.87-19.45,2.94-29.03L87.69,.08h26.35l31.86,77.75c7.02,17.11,5.06,36.5-5.25,51.87Z"/><path d="M114.2,1300.13h-26.35l-44.92-109.6c-4.79-11.71-16.05-19.26-28.69-19.26H.16v-24.38H14.23c11.03,0,21.7,3.25,30.87,9.39,9.15,6.14,16.2,14.78,20.39,24.99l48.71,118.86Z"/><path d="M1300.65,1146.89v24.38h-13.7c-12.62,0-23.87,7.55-28.68,19.22l-45.1,109.64h-26.36l48.92-118.92c4.19-10.19,11.24-18.81,20.39-24.95,9.15-6.12,19.81-9.37,30.83-9.37h13.7Z"/><path d="M1300.71,32.84V99.34l-7.78,19.73c-4.09,10.39-11.13,19.2-20.36,25.48-9.23,6.29-20,9.6-31.17,9.6h-35.26c-18.51,0-35.71-9.18-46.01-24.56-10.3-15.39-12.25-34.78-5.21-51.91L1186.87,0h26.36l-35.77,86.97c-3.95,9.58-2.86,20.45,2.91,29.06,5.78,8.6,15.41,13.74,25.76,13.74h35.26c12.83,0,24.15-7.71,28.85-19.64l30.47-77.29Z"/><path d="M1300.3,702.52c-4.8-3.17-11.32-2.64-15.54,1.58l-94.28,94.28c-4.81,4.81-12.6,4.81-17.4,.01l-30.69-30.69c-4.8-4.8-4.79-12.6,.01-17.4l94.31-94.31c4.81-4.81,4.81-12.6,.01-17.4l-99.94-99.94c-4.83-4.83-4.83-12.65,0-17.48l34.1-34.1c4.85-4.85,12.7-4.87,17.52-.04l99.9,99.9c3.23,3.23,7.8,4.29,11.93,3.19"/><path d="M.22,590.11c2.05-.55,3.98-1.62,5.59-3.23h.01l94.9-94.9c4.83-4.83,12.65-4.83,17.48,0l30.65,30.65c4.8,4.8,4.77,12.62-.07,17.46l-94.93,94.93c-4.83,4.83-4.83,12.65,0,17.48l109.8,109.8c4.83,4.83,4.83,12.65,0,17.48l-34.1,34.1c-4.85,4.85-12.71,4.86-17.54,.03L2.24,704.11c-.6-.6-1.25-1.13-1.94-1.58"/><path d="M589.91,1300.47c1.1-4.11,.03-8.66-3.18-11.88l-99.94-99.94c-4.83-4.83-4.83-12.65,0-17.48l34.1-34.1c4.85-4.85,12.7-4.87,17.52-.04l99.9,99.9c4.83,4.83,12.68,4.8,17.52-.04h.01l94.9-94.9c4.83-4.83,12.65-4.83,17.48,0l30.65,30.65c4.8,4.8,4.77,12.62-.07,17.46l-94.93,94.93c-4.2,4.2-4.75,10.67-1.64,15.46"/><path d="M702.22,.46c.46,.72,1.01,1.4,1.64,2.02l109.8,109.8c4.83,4.83,4.83,12.65,0,17.48l-34.1,34.1c-4.85,4.85-12.71,4.86-17.54,.03l-109.78-109.78c-4.83-4.83-12.65-4.83-17.48,0l-94.28,94.28c-4.81,4.81-12.6,4.81-17.4,.01l-30.69-30.69c-4.8-4.8-4.79-12.6,.01-17.4L586.71,5.99c1.59-1.59,2.65-3.5,3.19-5.53"/></svg>